<svg width="185" height="108" viewBox="0 0 185 108" fill="none" xmlns="http://www.w3.org/2000/svg">
<path d="M12.5 64L15.3064 72.6373H24.3882L17.0409 77.9754L19.8473 86.6127L12.5 81.2746L5.15268 86.6127L7.95911 77.9754L0.611794 72.6373H9.69357L12.5 64Z" fill="#F94449"/>
<path d="M149.5 0L157.47 24.5299H183.263L162.396 39.6902L170.366 64.2201L149.5 49.0598L128.634 64.2201L136.604 39.6902L115.737 24.5299H141.53L149.5 0Z" fill="#F94449"/>
<path d="M40 61L43.3677 71.3647H54.2658L45.4491 77.7705L48.8168 88.1353L40 81.7295L31.1832 88.1353L34.5509 77.7705L25.7342 71.3647H36.6323L40 61Z" fill="#F94449"/>
<path d="M84 51L88.4903 64.8197H103.021L91.2654 73.3607L95.7557 87.1803L84 78.6393L72.2443 87.1803L76.7346 73.3607L64.9789 64.8197H79.5097L84 51Z" fill="#F94449"/>
<path d="M14.848 51.248H36.416V59.312H14.848V51.248ZM15.616 69.68H40V78H5.312V33.2H39.168V41.52H15.616V69.68ZM48.2495 78V33.2H68.6015C73.4655 33.2 77.7535 34.1387 81.4655 36.016C85.1775 37.8507 88.0788 40.432 90.1695 43.76C92.2602 47.088 93.3055 51.0347 93.3055 55.6C93.3055 60.1227 92.2602 64.0693 90.1695 67.44C88.0788 70.768 85.1775 73.3707 81.4655 75.248C77.7535 77.0827 73.4655 78 68.6015 78H48.2495ZM58.6175 69.488H68.0895C71.0762 69.488 73.6575 68.9333 75.8335 67.824C78.0522 66.672 79.7588 65.0507 80.9535 62.96C82.1908 60.8693 82.8095 58.416 82.8095 55.6C82.8095 52.7413 82.1908 50.288 80.9535 48.24C79.7588 46.1493 78.0522 44.5493 75.8335 43.44C73.6575 42.288 71.0762 41.712 68.0895 41.712H58.6175V69.488ZM101.125 78V33.2H123.013C128.645 33.2 132.869 34.2667 135.685 36.4C138.543 38.5333 139.973 41.3493 139.973 44.848C139.973 47.1947 139.397 49.2427 138.245 50.992C137.093 52.6987 135.514 54.0213 133.509 54.96C131.503 55.8987 129.199 56.368 126.597 56.368L127.812 53.744C130.629 53.744 133.125 54.2133 135.301 55.152C137.477 56.048 139.162 57.392 140.357 59.184C141.594 60.976 142.213 63.1733 142.213 65.776C142.213 69.616 140.698 72.624 137.669 74.8C134.639 76.9333 130.181 78 124.293 78H101.125ZM111.429 70.192H123.525C126.213 70.192 128.239 69.7653 129.604 68.912C131.013 68.016 131.717 66.608 131.717 64.688C131.717 62.8107 131.013 61.424 129.604 60.528C128.239 59.5893 126.213 59.12 123.525 59.12H110.661V51.568H121.733C124.25 51.568 126.17 51.1413 127.493 50.288C128.858 49.392 129.541 48.048 129.541 46.256C129.541 44.5067 128.858 43.2053 127.493 42.352C126.17 41.456 124.25 41.008 121.733 41.008H111.429V70.192Z" fill="black"/>
<path d="M10 104V93.824H6.064V92.8H15.12V93.824H11.184V104H10ZM17.8327 104V95.6H18.9207V97.888L18.8087 97.488C19.0434 96.848 19.4381 96.3627 19.9927 96.032C20.5474 95.6907 21.2354 95.52 22.0567 95.52V96.624C22.0141 96.624 21.9714 96.624 21.9288 96.624C21.8861 96.6133 21.8434 96.608 21.8007 96.608C20.9154 96.608 20.2221 96.88 19.7207 97.424C19.2194 97.9573 18.9687 98.72 18.9687 99.712V104H17.8327ZM30.0486 104V102.144L30.0006 101.84V98.736C30.0006 98.0213 29.798 97.472 29.3926 97.088C28.998 96.704 28.406 96.512 27.6166 96.512C27.0726 96.512 26.5553 96.6027 26.0646 96.784C25.574 96.9653 25.158 97.2053 24.8166 97.504L24.3046 96.656C24.7313 96.2933 25.2433 96.016 25.8406 95.824C26.438 95.6213 27.0673 95.52 27.7286 95.52C28.8166 95.52 29.654 95.792 30.2406 96.336C30.838 96.8693 31.1366 97.6853 31.1366 98.784V104H30.0486ZM27.1526 104.08C26.5233 104.08 25.974 103.979 25.5046 103.776C25.046 103.563 24.694 103.275 24.4486 102.912C24.2033 102.539 24.0806 102.112 24.0806 101.632C24.0806 101.195 24.182 100.8 24.3846 100.448C24.598 100.085 24.9393 99.7973 25.4086 99.584C25.8886 99.36 26.5286 99.248 27.3286 99.248H30.2246V100.096H27.3606C26.55 100.096 25.9846 100.24 25.6646 100.528C25.3553 100.816 25.2006 101.173 25.2006 101.6C25.2006 102.08 25.3873 102.464 25.7606 102.752C26.134 103.04 26.6566 103.184 27.3286 103.184C27.9686 103.184 28.518 103.04 28.9766 102.752C29.446 102.453 29.7873 102.027 30.0006 101.472L30.2566 102.256C30.0433 102.811 29.67 103.253 29.1366 103.584C28.614 103.915 27.9526 104.08 27.1526 104.08ZM39.7901 95.52C40.4728 95.52 41.0701 95.6533 41.5821 95.92C42.1048 96.176 42.5101 96.5707 42.7981 97.104C43.0968 97.6373 43.2461 98.3093 43.2461 99.12V104H42.1101V99.232C42.1101 98.3467 41.8861 97.68 41.4381 97.232C41.0008 96.7733 40.3821 96.544 39.5821 96.544C38.9848 96.544 38.4621 96.6667 38.0141 96.912C37.5768 97.1467 37.2355 97.4933 36.9901 97.952C36.7555 98.4 36.6381 98.944 36.6381 99.584V104H35.5021V95.6H36.5901V97.904L36.4141 97.472C36.6808 96.864 37.1075 96.3893 37.6941 96.048C38.2808 95.696 38.9795 95.52 39.7901 95.52ZM49.8506 104.08C49.1573 104.08 48.5013 103.984 47.8826 103.792C47.264 103.589 46.7786 103.339 46.4266 103.04L46.9386 102.144C47.28 102.4 47.7173 102.624 48.2506 102.816C48.784 102.997 49.344 103.088 49.9306 103.088C50.7306 103.088 51.3066 102.965 51.6586 102.72C52.0106 102.464 52.1866 102.128 52.1866 101.712C52.1866 101.403 52.0853 101.163 51.8826 100.992C51.6906 100.811 51.4346 100.677 51.1146 100.592C50.7946 100.496 50.4373 100.416 50.0426 100.352C49.648 100.288 49.2533 100.213 48.8586 100.128C48.4746 100.043 48.1226 99.92 47.8026 99.76C47.4826 99.5893 47.2213 99.36 47.0186 99.072C46.8266 98.784 46.7306 98.4 46.7306 97.92C46.7306 97.4613 46.8586 97.0507 47.1146 96.688C47.3706 96.3253 47.744 96.0427 48.2346 95.84C48.736 95.6267 49.344 95.52 50.0586 95.52C50.6026 95.52 51.1466 95.5947 51.6906 95.744C52.2346 95.8827 52.6826 96.0693 53.0346 96.304L52.5386 97.216C52.1653 96.96 51.7653 96.7787 51.3386 96.672C50.912 96.5547 50.4853 96.496 50.0586 96.496C49.3013 96.496 48.7413 96.6293 48.3786 96.896C48.0266 97.152 47.8506 97.4827 47.8506 97.888C47.8506 98.208 47.9466 98.4587 48.1386 98.64C48.3413 98.8213 48.6026 98.9653 48.9226 99.072C49.2533 99.168 49.6106 99.248 49.9946 99.312C50.3893 99.376 50.7786 99.456 51.1626 99.552C51.5573 99.6373 51.9146 99.76 52.2346 99.92C52.5653 100.069 52.8266 100.288 53.0186 100.576C53.2213 100.853 53.3226 101.221 53.3226 101.68C53.3226 102.171 53.184 102.597 52.9066 102.96C52.64 103.312 52.2453 103.589 51.7226 103.792C51.2106 103.984 50.5866 104.08 49.8506 104.08ZM56.8791 104V94.544C56.8791 93.7973 57.0978 93.1947 57.5351 92.736C57.9725 92.2773 58.6018 92.048 59.4231 92.048C59.7431 92.048 60.0525 92.0907 60.3511 92.176C60.6498 92.2613 60.9005 92.3947 61.1031 92.576L60.7191 93.424C60.5591 93.2853 60.3725 93.184 60.1591 93.12C59.9458 93.0453 59.7165 93.008 59.4711 93.008C58.9911 93.008 58.6231 93.1413 58.3671 93.408C58.1111 93.6747 57.9831 94.0693 57.9831 94.592V95.872L58.0151 96.4V104H56.8791ZM55.3751 96.544V95.6H60.5751V96.544H55.3751ZM66.8164 104.08C65.9417 104.08 65.1737 103.899 64.5124 103.536C63.851 103.163 63.3337 102.656 62.9604 102.016C62.587 101.365 62.4004 100.624 62.4004 99.792C62.4004 98.96 62.5764 98.224 62.9284 97.584C63.291 96.944 63.7817 96.4427 64.4004 96.08C65.0297 95.7067 65.7337 95.52 66.5124 95.52C67.3017 95.52 68.0004 95.7013 68.6084 96.064C69.227 96.416 69.7124 96.9173 70.0644 97.568C70.4164 98.208 70.5924 98.9493 70.5924 99.792C70.5924 99.8453 70.587 99.904 70.5764 99.968C70.5764 100.021 70.5764 100.08 70.5764 100.144H63.2644V99.296H69.9684L69.5204 99.632C69.5204 99.024 69.387 98.4853 69.1204 98.016C68.8644 97.536 68.5124 97.1627 68.0644 96.896C67.6164 96.6293 67.099 96.496 66.5124 96.496C65.9364 96.496 65.419 96.6293 64.9604 96.896C64.5017 97.1627 64.1444 97.536 63.8884 98.016C63.6324 98.496 63.5044 99.0453 63.5044 99.664V99.84C63.5044 100.48 63.643 101.045 63.9204 101.536C64.2084 102.016 64.603 102.395 65.1044 102.672C65.6164 102.939 66.1977 103.072 66.8484 103.072C67.3604 103.072 67.835 102.981 68.2724 102.8C68.7204 102.619 69.1044 102.341 69.4244 101.968L70.0644 102.704C69.691 103.152 69.2217 103.493 68.6564 103.728C68.1017 103.963 67.4884 104.08 66.8164 104.08ZM74.1846 104V95.6H75.2726V97.888L75.1606 97.488C75.3953 96.848 75.79 96.3627 76.3446 96.032C76.8993 95.6907 77.5873 95.52 78.4086 95.52V96.624C78.366 96.624 78.3233 96.624 78.2806 96.624C78.238 96.6133 78.1953 96.608 78.1526 96.608C77.2673 96.608 76.574 96.88 76.0726 97.424C75.5713 97.9573 75.3206 98.72 75.3206 99.712V104H74.1846ZM84.7769 104.08C83.9875 104.08 83.3795 103.867 82.9529 103.44C82.5262 103.013 82.3129 102.411 82.3129 101.632V93.744H83.4489V101.568C83.4489 102.059 83.5715 102.437 83.8169 102.704C84.0729 102.971 84.4355 103.104 84.9049 103.104C85.4062 103.104 85.8222 102.96 86.1529 102.672L86.5529 103.488C86.3289 103.691 86.0569 103.84 85.7369 103.936C85.4275 104.032 85.1075 104.08 84.7769 104.08ZM80.8089 96.544V95.6H86.0089V96.544H80.8089ZM95.6084 104V92.8H96.5844L104.312 102.528H103.8V92.8H104.968V104H103.992L96.2804 94.272H96.7924V104H95.6084ZM114.928 104V102.144L114.88 101.84V98.736C114.88 98.0213 114.677 97.472 114.272 97.088C113.877 96.704 113.285 96.512 112.496 96.512C111.952 96.512 111.435 96.6027 110.944 96.784C110.453 96.9653 110.037 97.2053 109.696 97.504L109.184 96.656C109.611 96.2933 110.123 96.016 110.72 95.824C111.317 95.6213 111.947 95.52 112.608 95.52C113.696 95.52 114.533 95.792 115.12 96.336C115.717 96.8693 116.016 97.6853 116.016 98.784V104H114.928ZM112.032 104.08C111.403 104.08 110.853 103.979 110.384 103.776C109.925 103.563 109.573 103.275 109.328 102.912C109.083 102.539 108.96 102.112 108.96 101.632C108.96 101.195 109.061 100.8 109.264 100.448C109.477 100.085 109.819 99.7973 110.288 99.584C110.768 99.36 111.408 99.248 112.208 99.248H115.104V100.096H112.24C111.429 100.096 110.864 100.24 110.544 100.528C110.235 100.816 110.08 101.173 110.08 101.6C110.08 102.08 110.267 102.464 110.64 102.752C111.013 103.04 111.536 103.184 112.208 103.184C112.848 103.184 113.397 103.04 113.856 102.752C114.325 102.453 114.667 102.027 114.88 101.472L115.136 102.256C114.923 102.811 114.549 103.253 114.016 103.584C113.493 103.915 112.832 104.08 112.032 104.08ZM123.038 104.08C122.248 104.08 121.64 103.867 121.214 103.44C120.787 103.013 120.574 102.411 120.574 101.632V93.744H121.71V101.568C121.71 102.059 121.832 102.437 122.078 102.704C122.334 102.971 122.696 103.104 123.166 103.104C123.667 103.104 124.083 102.96 124.414 102.672L124.814 103.488C124.59 103.691 124.318 103.84 123.998 103.936C123.688 104.032 123.368 104.08 123.038 104.08ZM119.07 96.544V95.6H124.27V96.544H119.07ZM128.161 104V95.6H129.297V104H128.161ZM128.737 93.744C128.503 93.744 128.305 93.664 128.145 93.504C127.985 93.344 127.905 93.152 127.905 92.928C127.905 92.704 127.985 92.5173 128.145 92.368C128.305 92.208 128.503 92.128 128.737 92.128C128.972 92.128 129.169 92.2027 129.329 92.352C129.489 92.5013 129.569 92.688 129.569 92.912C129.569 93.1467 129.489 93.344 129.329 93.504C129.18 93.664 128.983 93.744 128.737 93.744ZM137.162 104.08C136.352 104.08 135.621 103.899 134.97 103.536C134.33 103.163 133.824 102.656 133.45 102.016C133.077 101.365 132.89 100.624 132.89 99.792C132.89 98.9493 133.077 98.208 133.45 97.568C133.824 96.928 134.33 96.4267 134.97 96.064C135.61 95.7013 136.341 95.52 137.162 95.52C137.994 95.52 138.73 95.7013 139.37 96.064C140.021 96.4267 140.528 96.928 140.89 97.568C141.264 98.208 141.45 98.9493 141.45 99.792C141.45 100.624 141.264 101.365 140.89 102.016C140.528 102.656 140.021 103.163 139.37 103.536C138.72 103.899 137.984 104.08 137.162 104.08ZM137.162 103.072C137.77 103.072 138.309 102.939 138.778 102.672C139.248 102.395 139.616 102.011 139.882 101.52C140.16 101.019 140.298 100.443 140.298 99.792C140.298 99.1307 140.16 98.5547 139.882 98.064C139.616 97.5733 139.248 97.1947 138.778 96.928C138.309 96.6507 137.776 96.512 137.178 96.512C136.581 96.512 136.048 96.6507 135.578 96.928C135.109 97.1947 134.736 97.5733 134.458 98.064C134.181 98.5547 134.042 99.1307 134.042 99.792C134.042 100.443 134.181 101.019 134.458 101.52C134.736 102.011 135.109 102.395 135.578 102.672C136.048 102.939 136.576 103.072 137.162 103.072ZM149.338 95.52C150.02 95.52 150.618 95.6533 151.13 95.92C151.652 96.176 152.058 96.5707 152.346 97.104C152.644 97.6373 152.794 98.3093 152.794 99.12V104H151.658V99.232C151.658 98.3467 151.434 97.68 150.986 97.232C150.548 96.7733 149.93 96.544 149.13 96.544C148.532 96.544 148.01 96.6667 147.562 96.912C147.124 97.1467 146.783 97.4933 146.538 97.952C146.303 98.4 146.186 98.944 146.186 99.584V104H145.05V95.6H146.138V97.904L145.962 97.472C146.228 96.864 146.655 96.3893 147.242 96.048C147.828 95.696 148.527 95.52 149.338 95.52ZM162.406 104V102.144L162.358 101.84V98.736C162.358 98.0213 162.155 97.472 161.75 97.088C161.355 96.704 160.763 96.512 159.974 96.512C159.43 96.512 158.913 96.6027 158.422 96.784C157.931 96.9653 157.515 97.2053 157.174 97.504L156.662 96.656C157.089 96.2933 157.601 96.016 158.198 95.824C158.795 95.6213 159.425 95.52 160.086 95.52C161.174 95.52 162.011 95.792 162.598 96.336C163.195 96.8693 163.494 97.6853 163.494 98.784V104H162.406ZM159.51 104.08C158.881 104.08 158.331 103.979 157.862 103.776C157.403 103.563 157.051 103.275 156.806 102.912C156.561 102.539 156.438 102.112 156.438 101.632C156.438 101.195 156.539 100.8 156.742 100.448C156.955 100.085 157.297 99.7973 157.766 99.584C158.246 99.36 158.886 99.248 159.686 99.248H162.582V100.096H159.718C158.907 100.096 158.342 100.24 158.022 100.528C157.713 100.816 157.558 101.173 157.558 101.6C157.558 102.08 157.745 102.464 158.118 102.752C158.491 103.04 159.014 103.184 159.686 103.184C160.326 103.184 160.875 103.04 161.334 102.752C161.803 102.453 162.145 102.027 162.358 101.472L162.614 102.256C162.401 102.811 162.027 103.253 161.494 103.584C160.971 103.915 160.31 104.08 159.51 104.08ZM167.86 104V92.128H168.996V104H167.86Z" fill="#8B8B8B"/>
</svg>
