<svg width="63" height="63" viewBox="0 0 63 63" fill="none" xmlns="http://www.w3.org/2000/svg">
<path d="M31.441 2C15.1812 2 2 15.1812 2 31.441C2 47.7007 15.1812 60.882 31.441 60.882C47.7007 60.882 60.882 47.7007 60.882 31.441C60.882 15.1812 47.7007 2 31.441 2Z" stroke="#DE0A26" stroke-width="3" stroke-linecap="round" stroke-linejoin="round"/>
<path d="M8.68604 50.1234C8.68604 50.1234 15.2485 41.7454 31.441 41.7454C47.6335 41.7454 54.1962 50.1234 54.1962 50.1234" stroke="#DE0A26" stroke-width="3" stroke-linecap="round" stroke-linejoin="round"/>
<path d="M31.4411 31.441C36.3191 31.441 40.2734 27.4868 40.2734 22.6087C40.2734 17.7308 36.3191 13.7764 31.4411 13.7764C26.563 13.7764 22.6088 17.7308 22.6088 22.6087C22.6088 27.4868 26.563 31.441 31.4411 31.441Z" stroke="#DE0A26" stroke-width="3" stroke-linecap="round" stroke-linejoin="round"/>
</svg>
